<?xml version="1.0" encoding="UTF-8"?>
<svg id="_레이어_1" xmlns="http://www.w3.org/2000/svg" version="1.1" viewBox="0 0 149.39 36.98">
  <!-- Generator: Adobe Illustrator 30.3.0, SVG Export Plug-In . SVG Version: 2.1.3 Build 182)  -->
  <defs>
    <style>
      .st0 {
        fill: #00d866;
      }
    </style>
  </defs>
  <g>
    <path class="st0" d="M145.36,25.69h-21.84l-.97,3.59h21.84c.99,0,2.01-.8,2.28-1.79.27-.99-.33-1.79-1.31-1.79Z"/>
    <path class="st0" d="M149.33,9.58c.27-.99-.33-1.79-1.31-1.79h-17.57l-.96,3.59h17.57c.99,0,2.01-.8,2.28-1.79h0Z"/>
    <path class="st0" d="M128.02,23.56h13.61c2.07,0,3.49-1.02,3.75-1.23.89-.7,1.2-1.83.7-2.53-.49-.69-1.59-.71-2.46-.07-.06.04-.43.25-1.02.25h-11.81l.96-3.59h13.98c.99,0,2.01-.8,2.28-1.79.27-.99-.33-1.79-1.31-1.79h-17.57l-.96,3.59-1.44,5.38c-.27.99.33,1.79,1.31,1.79h0Z"/>
    <path class="st0" d="M119.56,25.69h-23.96l-.96,3.59h23.96c.99,0,2.01-.8,2.28-1.79.27-.99-.33-1.79-1.31-1.79h0Z"/>
    <path class="st0" d="M114.47,9.37c.24.6.6,1.13,1.1,1.58,1.96,1.68,2.23,4.85.32,7.68-.83,1.23-1.99,2.23-3.2,2.92-.34.16-.7.24-1.05.21-.28-.03-.57-.12-.76-.26-.1-.11-.25-.19-.43-.2-.47-.04-.99.32-1.16.8-.07.19-.07.36-.02.52.04.14.13.26.26.33.03.02.05.03.08.04.61.32,1.32.52,2.11.59,3.76.34,8.42-2.51,9.79-6.37,1.18-3.32-.1-6.31-2.9-7.28-.63-.23-1.22-.56-1.74-.98h0c.32,0,.64-.26.73-.57.09-.32-.1-.57-.42-.57h-6.34l-12.75,15.78h4.89l11.49-14.19v-.02Z"/>
    <path class="st0" d="M85.74,7.78h-12.55l-.96,3.59h10.76l-1.15,4.31h-10.76l-.96,3.59-2.2,8.22c-.27.99.33,1.79,1.31,1.79h8.59c2.07,0,3.49-1.02,3.75-1.23.89-.7,1.2-1.83.7-2.53-.49-.69-1.59-.71-2.46-.07-.06.04-.43.25-1.02.25h-6.8l1.72-6.42h8.97c.99,0,2.01-.8,2.27-1.79l2.12-7.89c.27-.99-.33-1.79-1.31-1.79h-.02Z"/>
    <path class="st0" d="M96.45,7.78h-1.79l-5.28,19.69c-.27.99.33,1.79,1.31,1.79h1.79l5.27-19.69c.27-.99-.33-1.79-1.31-1.79h0Z"/>
    <path class="st0" d="M91.44,7.78h-1.79l-2.12,7.89h-1.4l-.96,3.59h1.4l-2.2,8.22c-.27.99.33,1.79,1.31,1.79h1.79l5.27-19.69c.27-.99-.33-1.79-1.31-1.79h0Z"/>
    <path class="st0" d="M64.41,25.69h-7.87l.96-3.57h3.58c2.07,0,3.49-1.02,3.75-1.23.89-.7,1.2-1.83.7-2.53-.49-.69-1.59-.71-2.46-.07-.06.04-.43.25-1.02.25h-.98l1.05-3.92c.27-.99-.33-1.79-1.31-1.79h-2.51l-1.53,5.72h-2.24l.67-2.5c.27-.99-.33-1.79-1.31-1.79h-2.51l-1.15,4.3h-3.59l-.96,3.59h7.53l-.96,3.57h-9.67l-.96,3.59h21.84c.99,0,2.01-.8,2.28-1.79.27-.99-.33-1.79-1.31-1.79h-.02Z"/>
    <path class="st0" d="M68.38,9.58c.27-.99-.33-1.79-1.31-1.79h-17.57l-.96,3.59h17.57c.99,0,2.01-.8,2.28-1.79h0Z"/>
    <path class="st0" d="M145.36,25.69h-21.84l-.97,3.59h21.84c.99,0,2.01-.8,2.28-1.79.27-.99-.33-1.79-1.31-1.79Z"/>
    <path class="st0" d="M149.33,9.58c.27-.99-.33-1.79-1.31-1.79h-17.57l-.96,3.59h17.57c.99,0,2.01-.8,2.28-1.79h0Z"/>
    <path class="st0" d="M128.02,23.56h13.61c2.07,0,3.49-1.02,3.75-1.23.89-.7,1.2-1.83.7-2.53-.49-.69-1.59-.71-2.46-.07-.06.04-.43.25-1.02.25h-11.81l.96-3.59h13.98c.99,0,2.01-.8,2.28-1.79.27-.99-.33-1.79-1.31-1.79h-17.57l-.96,3.59-1.44,5.38c-.27.99.33,1.79,1.31,1.79h0Z"/>
    <path class="st0" d="M119.56,25.69h-23.96l-.96,3.59h23.96c.99,0,2.01-.8,2.28-1.79.27-.99-.33-1.79-1.31-1.79h0Z"/>
    <path class="st0" d="M114.47,9.37c.24.6.6,1.13,1.1,1.58,1.96,1.68,2.23,4.85.32,7.68-.83,1.23-1.99,2.23-3.2,2.92-.34.16-.7.24-1.05.21-.28-.03-.57-.12-.76-.26-.1-.11-.25-.19-.43-.2-.47-.04-.99.32-1.16.8-.07.19-.07.36-.02.52.04.14.13.26.26.33.03.02.05.03.08.04.61.32,1.32.52,2.11.59,3.76.34,8.42-2.51,9.79-6.37,1.18-3.32-.1-6.31-2.9-7.28-.63-.23-1.22-.56-1.74-.98h0c.32,0,.64-.26.73-.57.09-.32-.1-.57-.42-.57h-6.34l-12.75,15.78h4.89l11.49-14.19v-.02Z"/>
    <path class="st0" d="M85.74,7.78h-12.55l-.96,3.59h10.76l-1.15,4.31h-10.76l-.96,3.59-2.2,8.22c-.27.99.33,1.79,1.31,1.79h8.59c2.07,0,3.49-1.02,3.75-1.23.89-.7,1.2-1.83.7-2.53-.49-.69-1.59-.71-2.46-.07-.06.04-.43.25-1.02.25h-6.8l1.72-6.42h8.97c.99,0,2.01-.8,2.27-1.79l2.12-7.89c.27-.99-.33-1.79-1.31-1.79h-.02Z"/>
    <path class="st0" d="M96.45,7.78h-1.79l-5.28,19.69c-.27.99.33,1.79,1.31,1.79h1.79l5.27-19.69c.27-.99-.33-1.79-1.31-1.79h0Z"/>
    <path class="st0" d="M91.44,7.78h-1.79l-2.12,7.89h-1.4l-.96,3.59h1.4l-2.2,8.22c-.27.99.33,1.79,1.31,1.79h1.79l5.27-19.69c.27-.99-.33-1.79-1.31-1.79h0Z"/>
    <path class="st0" d="M64.41,25.69h-7.87l.96-3.57h3.58c2.07,0,3.49-1.02,3.75-1.23.89-.7,1.2-1.83.7-2.53-.49-.69-1.59-.71-2.46-.07-.06.04-.43.25-1.02.25h-.98l1.05-3.92c.27-.99-.33-1.79-1.31-1.79h-2.51l-1.53,5.72h-2.24l.67-2.5c.27-.99-.33-1.79-1.31-1.79h-2.51l-1.15,4.3h-3.59l-.96,3.59h7.53l-.96,3.57h-9.67l-.96,3.59h21.84c.99,0,2.01-.8,2.28-1.79.27-.99-.33-1.79-1.31-1.79h-.02Z"/>
    <path class="st0" d="M68.38,9.58c.27-.99-.33-1.79-1.31-1.79h-17.57l-.96,3.59h17.57c.99,0,2.01-.8,2.28-1.79h0Z"/>
  </g>
  <g>
    <path class="st0" d="M37,17.84h0v-.17h0v-.03c-.07-1.43-.3-2.81-.67-4.13h0s-.02-.08-.04-.12h0s0-.04-.02-.06h0s0-.03-.02-.05c-.06-.21-.13-.4-.19-.61,0-.04-.02-.08-.04-.12h0v-.02h0v-.02c-1.84-5.37-6.07-9.63-11.43-11.49-.02,0-.03,0-.05-.02-.26-.09-.5-.17-.76-.25-.04,0-.08-.02-.12-.03-.24-.07-.47-.14-.72-.2-.06-.02-.13-.03-.19-.04-.22-.05-.44-.1-.66-.15-.09-.02-.18-.03-.27-.05-.2-.04-.4-.07-.6-.1-.12-.02-.24-.03-.36-.05-.18-.02-.35-.05-.53-.07-.16-.02-.33-.03-.49-.04-.14,0-.28-.02-.42-.03-.3,0-.59-.02-.9-.02h-.03c-.3,0-.58,0-.87.02-.11,0-.22,0-.33.02-.18,0-.34.02-.52.04-.14,0-.28.03-.41.04-.14.02-.27.03-.4.05-.16.02-.32.04-.46.07h-.07s-.08,0-.12.02h0c-.11.02-.21.04-.32.06-.12.02-.24.04-.35.07-.03,0-.06,0-.08.02h0c-.1.02-.21.05-.31.07h0c-.08.02-.16.04-.25.06C8.47,1.91,3.92,5.78,1.61,10.89h0c-.14.32-.28.63-.39.95,0,0,0,.02,0,.04-.27.69-.49,1.39-.67,2.11,0,.06-.03.12-.04.17H.49c0,.06-.03.12-.04.18H.45s0,.04,0,.06H.44s0,.07-.02.11c-.04.19-.08.37-.12.56,0,.06-.02.12-.04.17H.27s0,.06-.02.09H.25s0,.09-.02.13c-.03.17-.05.34-.08.5,0,.08-.03.16-.04.25H.11v.05H.11c0,.09-.02.17-.03.26,0,.04,0,.08,0,.11H.07s0,.09,0,.14H.06c0,.09-.02.19-.03.28H.03v.08H.03v.19c0,.16-.02.31-.02.46,0,.08,0,.16,0,.25h0v.06h0v.41h0c0,.29,0,.58.02.87,0,.17.02.34.04.51,0,.09,0,.18.02.28H.08v.04H.08v.03c.03.3.06.58.1.88,0,.03,0,.06,0,.09.04.29.09.57.15.85,0,.04,0,.08.02.12.06.28.12.54.19.82,0,.05.02.09.03.14.08.31.17.61.26.92v.02c.04.11.07.23.11.34.03.08.06.16.09.24.05.15.11.3.16.44.04.12.09.23.14.34.07.17.14.34.21.5.04.08.07.16.11.24.09.2.18.38.28.58.02.04.04.09.07.13.11.23.23.44.34.66,0,0,0,.02,0,.02.56,1.01,1.21,1.96,1.95,2.84h0s.06.06.08.1c.15.18.31.35.46.53.11.12.22.23.33.34.1.1.2.21.3.31.13.13.27.26.4.38.04.04.08.07.12.1.08.08.17.15.25.23.05.04.09.09.14.13h0s.05.04.07.06h0s.06.05.09.07c.16.13.31.26.46.38.09.07.18.14.27.21.14.1.27.21.4.31.06.04.11.09.17.13.07.05.15.1.22.15.07.05.15.1.22.15.02.02.05.03.07.05.13.09.26.17.39.25.65.4,1.32.77,2.02,1.09h0c.1.05.2.09.3.14.03.02.07.03.1.04.15.07.31.13.46.19.08.03.16.07.25.1,1.14.44,2.35.78,3.59.99.08,0,.15.03.23.04h.11c.28.04.55.08.83.11.14,0,.28.02.4.03.15,0,.3.03.44.04h.04c.34.02.68.03,1.02.03h0c.29,0,.56,0,.85-.02.11,0,.22,0,.32-.02.18,0,.34-.02.52-.04.13,0,.26-.02.37-.04.16-.02.31-.04.46-.06.13-.02.26-.03.38-.05h.02c.2-.03.4-.07.6-.11.02,0,.04,0,.06,0,.17-.03.34-.07.5-.11.12-.03.23-.05.34-.08.16-.04.32-.08.47-.12.12-.03.25-.07.36-.1.15-.04.3-.09.44-.14.13-.04.26-.09.38-.13.14-.05.28-.1.41-.15.14-.05.28-.11.4-.16.13-.05.25-.1.37-.15.17-.07.34-.15.5-.23.19-.09.36-.18.54-.27.14-.07.29-.14.42-.22.13-.07.26-.15.38-.22.11-.06.23-.13.34-.19.14-.08.28-.17.41-.26.09-.06.19-.12.28-.18.15-.1.3-.2.43-.3.07-.05.14-.1.21-.15.16-.12.32-.23.47-.35.04-.03.07-.05.1-.08,3.52-2.74,6.03-6.73,6.86-11.3h0s0-.08.02-.12c.18-1.04.29-2.11.29-3.2h0c0-.23,0-.45,0-.68l-.02.06ZM10.53,33.23v.29c0,.16-.1.28-.23.28-.24-.13-.46-.26-.69-.39-.11-.13-.07-.31.08-.46l.32-.32c.13-.13.53-.25.53.13v.47h0ZM10.53,30c0,.23-.11.51-.27.68l-.34.34h.06-.06l-1.12,1.12-.1.09c-.16.13-.34.25-.51.21-.39-.3-.78-.61-1.15-.94-.08-.19.14-.41.33-.59h0l.47-.47h0l1.19-1.19.09-.09h0s.32-.33.32-.33h0l.2-.2.46-.46c.19-.19.43-.17.43.2v1.64h0ZM14.14,35.29c-.79-.21-1.56-.46-2.3-.77-.11-.1-.14-.21-.14-.34v-1.17c0-.31.16-.76.41-.5l.65.65h0l.16.16.15.15h0l.95.95s.1.12.14.2c0,0,.04.09.05.1.11.26.13.54-.09.57l.02.02ZM22.43,35.38c-.1-.03-.18-.14-.18-.31v-4.74c0-.36.17-.61.35-.42h0l1.5,1.51c.12.12.31.12.41,0l.41-.41c.12-.12.12-.31,0-.41l-1.05-1.05-.53-.53h0l-.8-.8c-.18-.18-.3-.49-.3-.73v-1.13s.07-.52.32-.28h0l1.54,1.54c.12.12.31.12.41,0l.41-.41c.12-.12.12-.31,0-.41l-.47-.47-.23-.24h0l-.12-.12h0l-2.25-2.25c-.11-.11-.31-.11-.41,0l-3.07,3.07c-.12.12-.12.31,0,.41l.41.41c.12.12.31.12.41,0l1.02-1.02h0l.2-.2h0l.11-.11h0l.13-.13c.16-.16.39-.31.39,0v1.26c0,.21-.12.62-.39.9h0l-2.31,2.31c-.12.12-.12.31,0,.41l.41.41c.12.12.31.12.41,0l1.36-1.36c.2-.2.49-.38.49,0v5.12c0,.22-.11.41-.24.49-.77.11-1.56.17-2.36.17-.47,0-.95-.02-1.42-.06l-5.08-5.08c-.11-.11-.21-.33-.26-.55l-.02-.15v-1.69c0-.26.18-.37.38-.18h.02v.02l4.31,4.31h.02v.02c.12.12.3.12.41,0l.41-.41c.12-.12.12-.31,0-.41l-5.06-5.06-.31-.32c-.15-.2-.19-.58-.19-.81v-2.27c0-.12.08-.25.18-.31h0c.07-.04.15-.05.22.03l4.32,4.32c.12.12.31.12.41,0l.41-.41c.12-.12.12-.31,0-.41l-1.55-1.55-.18-.18h0l-.08-.08-4.13-4.13c-.11-.11-.31-.11-.41,0l-.4.4h0l-.36.36-.04.04h0l-.08.08-.49.49h0l-.17.18h0l-.07.07h0l-.16.16h0l-1.03,1.03-.29.29h0l-.06.06h0l-.9.9-.61.61h0l-.31.31h0l-.03.03h0l-.66.66h0l-.13.13-.15.15c-.12.12-.12.31,0,.41l.41.41c.12.12.31.12.41,0l1.61-1.61h0l.07-.07h0l.09-.09h0l.07-.07h0l.96-.96h0l.12-.12h0l.07-.07h0l.04-.04,1.26-1.26c.24-.24.43-.12.43.18v2.41c0,.26-.12.68-.31.87l-.1.1h0s0,0,0,0l-.09.09h0l-.1.1h0l-.1.1h0l-.2.2h0l-.08.08-3.2,3.2c-.17.17-.41.09-.64-.08-1.55-1.69-2.76-3.7-3.54-5.91,0-.11.03-.2.09-.28l1.72-1.98s0-.02.02-.03h0l1.26-1.44.62-.71,2.15-2.45c.13-.15.5-.42.82-.23h0l.21.13.08.05h0l1.82,1.12h0l.13.08h0l.15.09.82.5c.12.07.27.05.35-.04l2.69-2.59.34.09.08.02,3.44.88c.31.08.54.2.69.36l3.81,4.37c.11.12.3.14.41.03l.44-.38c.06-.05.1-.13.1-.21s-.02-.16-.07-.22l-3.86-4.41c2.09-1.27,3.49-3.56,3.49-6.19,0-1.88-.73-3.6-1.9-4.89h0c-.15-.17-.31-.33-.47-.47,0,0-.02-.02-.03-.03-.16-.14-.33-.28-.49-.4,0,0-.02-.02-.04-.03,0,0-.02,0-.03-.02-.18-.13-.36-.25-.55-.36-.02,0-.05-.03-.07-.04-.19-.11-.38-.21-.58-.31-.02,0-.05-.02-.07-.04-.21-.09-.41-.18-.62-.25-.02,0-.03,0-.05-.02-.56-.19-1.15-.32-1.77-.36h-.17c-.13,0-.27-.02-.39-.02-.16,0-.32,0-.47.02h-.13c-.16,0-.33.04-.48.06-.04,0-.09,0-.13.02-.17.03-.34.06-.5.11-.02,0-.03,0-.05,0-1.35.34-2.54,1.05-3.48,2.03h0c-1.23,1.3-2,3.05-2,4.99,0,.89.17,1.73.45,2.51l-.84.96-.13.14h0l-.72.83h0l-.09.11h0l-.37.43h0l-.06.07h0l-.76.87h0l-.05.06h0l-1.24,1.42-.11.13-1.11,1.27h0l-.06.07h0l-.5.58h0l-.06.06h0l-.42.48h0l-.13.15h0l-.04.04-1.17,1.34c-.18.21-.39.08-.5-.09-.27-1.21-.41-2.46-.41-3.75C1.09,8.98,8.85,1.22,18.41,1.22s17.31,7.75,17.31,17.31c0,8.21-5.71,15.07-13.37,16.86h.08ZM9.57,15.62l4.06-4.64,1.91,2.19.14.15,1.55,1.76c.27.31.33.84,0,.76h0l-2.29-.58c-.1-.03-.21,0-.28.07l-.19.18-.07.07h0l-.18.17-.12.12h0l-1.57,1.51-.44.42-.36-.23-.07-.04h0l-.27-.17h0l-.04-.03-1.72-1.05c-.24-.15-.23-.46-.07-.65h0ZM12.55,8.49l.13-.02c.08,0,.16-.03.24-.04h0c.98-.19,1.91-.56,2.75-1.11,0,0,0,0,.02-.02h0c.92-.69,1.99-1.11,3.12-1.23h.11c.35-.04.72-.04,1.08,0,.09,0,.17,0,.26.03h0c.1.02.21.06.34.13.26.22.49.45.71.71.06.11.03.2-.13.17h0c-.1-.02-.21-.05-.34-.07-.44-.08-.9-.13-1.36-.13-1.51,0-2.96.44-4.19,1.27l-.07.05c-.08.05-.16.11-.24.17-.8.52-1.69.86-2.63.99h-.02c-.09,0-.18.03-.28.04h-.07c-.3.03-.6.03-.91,0-.12,0-.17-.12-.16-.25.05-.15.1-.31.15-.45.09-.12.23-.16.4-.16.35,0,.7-.03,1.04-.08h.02ZM12.18,6.92c1.1-1.28,2.74-2.1,4.57-2.1.21,0,.42,0,.62.03.25.07.26.19.08.27l-.05.02s-.02,0-.03,0h0s-.1.03-.15.05h-.05c-.78.27-1.51.64-2.18,1.13-.63.41-1.33.71-2.06.88l-.07.02c-.17.04-.33.07-.49.09-.3.03-.34-.19-.21-.4h.02ZM19.01,15.33c-.08-.1.06-.26.24-.27.35-.02.7,0,1.04.05.26.04.46.27.32.4-.06.05-.13.1-.19.15-.11.09-.23.17-.34.25-.04.02-.08.05-.11.07-.15.08-.41-.03-.55-.19l-.15-.17h0l-.06-.06s0,0,.02.02l-.22-.25h0ZM19.79,13.88h-.05c-.08,0-.16,0-.24,0-.46,0-.92.05-1.37.13h0c-.1.02-.23.05-.34-.08l-.33-.37c-.07-.09,0-.21.15-.26.36-.12.75-.19,1.13-.24l.14-.02c.21-.02.41-.03.63-.03h.32c.7.04,1.38.18,2.02.44,0,0,.02,0,.04.02h.02s.1.05.14.08c.06.04.09.1.05.17-.04.07-.07.13-.11.19-.03.05-.06.1-.09.15,0,.02-.03.03-.05.05,0,0-.03.02-.05.03h0s-.06.02-.09.02h-.02c-.07,0-.13,0-.16,0h0c-.56-.16-1.13-.25-1.71-.27h-.03ZM19.49,11.82c-.49,0-.98.05-1.45.14l-.16.03s-.09.02-.14.03h-.03c-.14.04-.28.08-.41.12h0c-.16.05-.32.11-.46.17l-.19.06h-.07s-.14-.05-.18-.07c-.05-.03-.1-.07-.13-.11l-.24-.28c-.13-.15-.02-.34.15-.45.65-.4,1.36-.68,2.11-.82h0c.06,0,.13-.02.19-.03l.16-.03s.09,0,.14,0l.18-.02c.18,0,.36-.03.54-.03,1.06,0,2.09.27,3.02.77.12.08.22.22.23.36,0,.03,0,.06,0,.09-.03.17-.06.34-.1.5v.04c-.03.08-.07.13-.15.12,0,0-.11-.03-.31-.11-.85-.33-1.74-.49-2.67-.49l-.03.02ZM22.55,10.01h-.02c-.79-.34-1.63-.56-2.48-.62h-.07c-.16-.02-.32-.02-.47-.02h-.16c-.55.02-1.09.09-1.62.21l-.08.02c-.69.18-1.34.44-1.95.8l-.13.08c-.12.08-.25.15-.36.24,0,0-.02,0-.03,0-.12.08-.23-.02-.3-.1l-.11-.12-.03-.03-.24-.27h0c-.07-.08-.05-.2.11-.27h0c.14-.06.27-.13.39-.2l.08-.04c.2-.11.38-.22.56-.34,0,0,0,0,.02-.02h0c.26-.19.52-.35.8-.5l.03-.02c.91-.48,1.92-.74,2.98-.74.39,0,.78.04,1.16.11h.06c.07.03.14.04.21.06l.14.04s.08.02.12.03h0s.09.03.09.03c.35.11.7.24,1.03.4.07.04.11.07.14.1.11.32.2.64.26.99,0,.15-.02.25-.15.2l.02-.03ZM12.03,10.59h0c.2-.02.36,0,.26.12l-.81.93c-.09.1-.32.23-.45.24h-.05c-.1-.02-.19-.11-.22-.25-.03-.25-.05-.5-.05-.77,0-.07,0-.14,0-.2.02-.05.07-.08.16-.07h0c.38.03.77.03,1.15,0h0Z"/>
    <path class="st0" d="M30.04,16.8h.02l-.21-.21c-.11-.11-.31-.11-.41,0l-.09.09h0l-.09.09h0l-.05.05h0l-.34.34h0l-2.39,2.4-.08.08-.03.03s-.07.11-.07.17v.15s.05.07.08.1l.41.41c.11.11.31.11.41,0l.2-.2h0l1.23-1.25c.19-.18.41-.19.41.09v1.11c0,.23-.12.66-.28.82l-2.42,2.42c-.12.12-.12.31,0,.41l.41.41c.12.12.31.12.41,0l1.13-1.13.07-.07.25-.25c.15-.15.41-.11.41.28v4.72c0,.17.13.3.3.3h.62c.11,0,.2-.08.24-.18h0s.02-.08.02-.12v-4.82c0-.09.03-.17.09-.21.04-.03.1-.03.1-.03.06,0,.14.03.26.09l.07.07.13.13.19.19,1.01,1.01s.07.07.12.09c.11.04.23.02.32-.07l.23-.23.2-.19s.03-.04.04-.06c.02-.04.04-.1.04-.15,0-.08-.03-.15-.09-.21l-.83-.83h0l-.15-.15-.1-.1h0l-.48-.48-.18-.18-.73-.73c-.18-.18-.24-.57-.24-.78v-1.14c0-.2.05-.41.29-.19h0l1.58,1.58c.1.1.26.11.36.03l.06-.05.4-.4c.12-.12.12-.31,0-.41l-.92-.92-.2-.2h0l-.3-.31h0l-.14-.14h0l-.06-.06h0l-.24-.24h0l-1.01-1.01h-.02.03Z"/>
  </g>
</svg>